<?xml version="1.0" encoding="utf-8"?>
<!-- Generator: Adobe Illustrator 15.0.0, SVG Export Plug-In . SVG Version: 6.00 Build 0)  -->
<!DOCTYPE svg PUBLIC "-//W3C//DTD SVG 1.1//EN" "http://www.w3.org/Graphics/SVG/1.1/DTD/svg11.dtd">
<svg version="1.1" xmlns="http://www.w3.org/2000/svg" xmlns:xlink="http://www.w3.org/1999/xlink" x="0px" y="0px" width="612px"
	 height="792px" viewBox="0 0 612 792" enable-background="new 0 0 612 792" xml:space="preserve">
<g id="Layer_1" display="none">
	<title>IPFS logo (new)</title>
	<path display="inline" d="M264.499,335.52h19.699v116.202h-19.699V335.52z M303.897,335.52h40.173
		c8.742,0,16.047,0.996,21.691,2.877c5.644,1.881,10.182,4.537,13.391,7.857c3.185,3.138,5.542,7.016,6.861,11.288
		c1.334,4.338,2.006,8.853,1.992,13.391c0.021,4.829-0.649,9.637-1.992,14.276c-1.309,4.471-3.66,8.567-6.861,11.952
		c-3.772,3.701-8.358,6.468-13.391,8.078c-5.645,1.992-12.728,2.988-21.359,2.988h-21.138v43.493h-19.367V335.52z M343.96,391.96
		c4.143,0.123,8.281-0.362,12.284-1.438c2.801-0.741,5.382-2.146,7.525-4.095c1.821-1.771,3.156-3.981,3.873-6.419
		c0.73-2.744,1.103-5.571,1.106-8.411c0.065-2.88-0.308-5.754-1.106-8.521c-0.735-2.36-2.115-4.468-3.984-6.087
		c-2.228-1.816-4.838-3.103-7.636-3.763c-3.944-0.974-8.001-1.42-12.063-1.328h-20.475v40.062H343.96z M476.651,335.52v16.932
		h-54.449v32.869h51.24v17.043h-51.24v49.358h-19.698V335.52H476.651z M505.647,416.197c0.885,7.636,3.651,13.17,8.189,16.601
		c4.537,3.431,11.509,5.201,20.584,5.201c3.778,0.108,7.55-0.377,11.178-1.438c2.651-0.834,5.127-2.146,7.304-3.874
		c1.778-1.541,3.115-3.527,3.874-5.755c0.77-2.28,1.144-4.676,1.106-7.082c0.022-1.837-0.239-3.666-0.774-5.424
		c-0.61-1.838-1.59-3.532-2.878-4.979c-1.612-1.673-3.527-3.025-5.644-3.983c-2.905-1.254-5.953-2.146-9.075-2.656l-14.83-2.768
		c-5.304-0.939-10.522-2.309-15.604-4.094c-4.189-1.436-8.088-3.609-11.51-6.419c-3.09-2.624-5.484-5.969-6.973-9.739
		c-1.659-4.495-2.448-9.265-2.324-14.055c-0.357-9.861,4.362-19.217,12.506-24.79c4.21-2.937,8.943-5.041,13.944-6.198
		c5.727-1.368,11.599-2.036,17.486-1.992c7.968,0,14.719,0.886,20.142,2.767c4.822,1.502,9.299,3.947,13.169,7.193
		c3.23,2.866,5.83,6.37,7.637,10.292c1.729,3.878,2.921,7.974,3.541,12.174l-18.592,2.877c-1.55-6.53-4.095-11.289-7.857-14.498
		c-3.763-3.209-9.629-4.759-17.818-4.759c-3.908-0.063-7.81,0.346-11.62,1.217c-2.706,0.647-5.262,1.812-7.525,3.431
		c-1.78,1.316-3.19,3.07-4.095,5.091c-0.796,1.893-1.209,3.923-1.218,5.976c0,5.091,1.328,8.854,4.095,11.399
		c2.768,2.545,7.637,4.427,14.608,5.866l16.047,3.099c12.285,2.324,21.249,6.197,27.004,11.62s8.632,13.391,8.632,23.684
		c0.039,4.67-0.864,9.299-2.656,13.612c-1.796,4.233-4.609,7.958-8.189,10.845c-4.06,3.299-8.72,5.779-13.723,7.305
		c-6.204,1.881-12.664,2.777-19.146,2.656c-14.83,0-26.561-3.099-34.972-9.407c-8.411-6.308-13.17-15.937-13.944-28.995H505.647
		L505.647,416.197z"/>
	<path display="inline" fill="#459DA1" d="M33.533,447.295l92.962,53.675l92.962-53.675V339.946l-92.962-53.675l-92.962,53.675
		V447.295z"/>
	<path display="inline" fill="#64C2CA" d="M116.977,299.109l-67.508,38.956c0.11,1.215,0.11,2.437,0,3.652l67.397,38.956
		c5.689-4.206,13.457-4.206,19.146,0l67.397-38.956c-0.11-1.215-0.11-2.437,0-3.652l-67.287-38.956
		C130.434,303.315,122.666,303.315,116.977,299.109z M209.939,352.452l-67.508,39.398c0.75,7.009-3.089,13.707-9.518,16.6
		l0.111,77.469c1.091,0.481,2.13,1.074,3.099,1.771l67.397-38.956c-0.75-7.009,3.089-13.706,9.518-16.6v-77.911
		C211.959,353.717,210.923,353.125,209.939,352.452z M43.05,352.895c-0.969,0.696-2.007,1.289-3.099,1.771v77.911
		c6.516,2.795,10.397,9.564,9.518,16.601l67.397,38.955c0.969-0.695,2.007-1.289,3.099-1.771V408.45
		c-6.517-2.795-10.397-9.564-9.518-16.6L43.05,352.895L43.05,352.895z"/>
	<path display="inline" fill="#459DA1" d="M126.495,297.892l83.113,48.03v95.95l-83.113,48.03l-83.112-48.03v-96.061
		L126.495,297.892 M126.495,286.493l-92.962,53.674v107.349l92.962,53.675l92.962-53.675V340.167L126.495,286.493z"/>
	<path display="inline" fill="#459DA1" d="M127.159,411.881h-1.328c-9.571,0.024-17.351-7.715-17.375-17.286c0-0.03,0-0.059,0-0.089
		v-1.328c-0.024-9.571,7.715-17.351,17.287-17.375c0.029,0,0.059,0,0.088,0h1.328c9.572-0.024,17.351,7.715,17.375,17.287
		c0,0.029,0,0.059,0,0.088v1.328c0.024,9.572-7.715,17.351-17.286,17.375C127.218,411.881,127.188,411.881,127.159,411.881z
		 M127.159,483.263h-1.328c-6.286-0.02-12.089,3.369-15.162,8.854l15.826,9.075l15.826-9.075
		C139.248,486.632,133.445,483.243,127.159,483.263L127.159,483.263z M219.567,429.588h-0.664
		c-9.571-0.024-17.351,7.715-17.375,17.286c0,0.03,0,0.06,0,0.089v1.328c-0.016,2.95,0.748,5.852,2.213,8.411l15.826-9.186V429.588z
		 M203.742,331.093c-1.453,2.565-2.215,5.463-2.213,8.411v1.328c-0.024,9.571,7.715,17.351,17.287,17.375c0.029,0,0.059,0,0.088,0
		h0.664v-18.039L203.742,331.093L203.742,331.093z M126.495,286.493l-15.826,9.075c3.058,5.513,8.857,8.942,15.162,8.964h1.328
		c6.286,0.019,12.089-3.37,15.162-8.854L126.495,286.493z M49.358,330.982l-15.826,9.186v18.039h0.664
		c9.571,0.024,17.351-7.715,17.375-17.287c0-0.029,0-0.059,0-0.088v-1.328C51.534,336.526,50.775,333.602,49.358,330.982z
		 M34.197,429.588h-0.664v17.929l15.826,9.186c1.453-2.565,2.215-5.463,2.213-8.411v-1.328c0.024-9.571-7.715-17.351-17.287-17.375
		C34.256,429.588,34.226,429.588,34.197,429.588z"/>
	<path display="inline" opacity="0.15" fill="#194F4B" d="M126.495,501.744V394.285L33.533,340.61v107.459L126.495,501.744z"/>
	<path display="inline" opacity="0.15" fill="#6BDBD0" d="M219.567,447.074v-107.35l-92.962,53.675v107.46L219.567,447.074z"/>
	<text transform="matrix(1 0 0 1 237.5 432.5)" font-family="'Arial-BoldMT'" font-size="100">IPFS BOX</text>
</g>
<g id="图层_3" display="none">
	
		<image display="inline" overflow="visible" width="584" height="676" xlink:href="FAE52893.jpg"  transform="matrix(0.3081 0 0 0.3081 18.79 507.9004)">
	</image>
</g>
<g id="图层_5" display="none">
	
		<image display="inline" overflow="visible" width="584" height="676" xlink:href="FAE52891.jpg"  transform="matrix(0.2173 0 0 0.2173 27.6514 446.4199)">
	</image>
</g>
<g id="Layer_1_x5F_复制" display="none">
	<title>IPFS logo (new)</title>
	<path d="M264.499,335.52h19.699v116.202h-19.699V335.52z M303.897,335.52h40.173c8.742,0,16.047,0.996,21.691,2.877
		c5.644,1.881,10.182,4.537,13.391,7.857c3.185,3.138,5.542,7.016,6.861,11.288c1.334,4.338,2.006,8.853,1.992,13.391
		c0.021,4.829-0.649,9.637-1.992,14.276c-1.309,4.471-3.66,8.567-6.861,11.952c-3.772,3.701-8.358,6.468-13.391,8.078
		c-5.645,1.992-12.728,2.988-21.359,2.988h-21.138v43.493h-19.367V335.52z M343.96,391.96c4.143,0.123,8.281-0.362,12.284-1.438
		c2.801-0.741,5.382-2.146,7.525-4.095c1.821-1.771,3.156-3.981,3.873-6.419c0.73-2.744,1.103-5.571,1.106-8.411
		c0.065-2.88-0.308-5.754-1.106-8.521c-0.735-2.36-2.115-4.468-3.984-6.087c-2.228-1.816-4.838-3.103-7.636-3.763
		c-3.944-0.974-8.001-1.42-12.063-1.328h-20.475v40.062H343.96z M476.651,335.52v16.932h-54.449v32.869h51.24v17.043h-51.24v49.358
		h-19.698V335.52H476.651z M505.647,416.197c0.885,7.636,3.651,13.17,8.189,16.601c4.537,3.431,11.509,5.201,20.584,5.201
		c3.778,0.108,7.55-0.377,11.178-1.438c2.651-0.834,5.127-2.146,7.304-3.874c1.778-1.541,3.115-3.527,3.874-5.755
		c0.77-2.28,1.144-4.676,1.106-7.082c0.022-1.837-0.239-3.666-0.774-5.424c-0.61-1.838-1.59-3.532-2.878-4.979
		c-1.612-1.673-3.527-3.025-5.644-3.983c-2.905-1.254-5.953-2.146-9.075-2.656l-14.83-2.768c-5.304-0.939-10.522-2.309-15.604-4.094
		c-4.189-1.436-8.088-3.609-11.51-6.419c-3.09-2.624-5.484-5.969-6.973-9.739c-1.659-4.495-2.448-9.265-2.324-14.055
		c-0.357-9.861,4.362-19.217,12.506-24.79c4.21-2.937,8.943-5.041,13.944-6.198c5.727-1.368,11.599-2.036,17.486-1.992
		c7.968,0,14.719,0.886,20.142,2.767c4.822,1.502,9.299,3.947,13.169,7.193c3.23,2.866,5.83,6.37,7.637,10.292
		c1.729,3.878,2.921,7.974,3.541,12.174l-18.592,2.877c-1.55-6.53-4.095-11.289-7.857-14.498c-3.763-3.209-9.629-4.759-17.818-4.759
		c-3.908-0.063-7.81,0.346-11.62,1.217c-2.706,0.647-5.262,1.812-7.525,3.431c-1.78,1.316-3.19,3.07-4.095,5.091
		c-0.796,1.893-1.209,3.923-1.218,5.976c0,5.091,1.328,8.854,4.095,11.399c2.768,2.545,7.637,4.427,14.608,5.866l16.047,3.099
		c12.285,2.324,21.249,6.197,27.004,11.62s8.632,13.391,8.632,23.684c0.039,4.67-0.864,9.299-2.656,13.612
		c-1.796,4.233-4.609,7.958-8.189,10.845c-4.06,3.299-8.72,5.779-13.723,7.305c-6.204,1.881-12.664,2.777-19.146,2.656
		c-14.83,0-26.561-3.099-34.972-9.407c-8.411-6.308-13.17-15.937-13.944-28.995H505.647L505.647,416.197z"/>
	<path display="inline" d="M29.178,393.561l62.004,35.8l62.004-35.8v-71.6l-62.004-35.8l-62.004,35.8V393.561z"/>
	<path display="inline" d="M84.834,294.724l-45.027,25.983c0.074,0.81,0.074,1.625,0,2.436l44.953,25.983
		c3.794-2.805,8.975-2.805,12.77,0l44.953-25.983c-0.074-0.81-0.074-1.625,0-2.436l-44.879-25.983
		C93.81,297.529,88.628,297.529,84.834,294.724z M146.838,330.302l-45.027,26.278c0.501,4.675-2.061,9.142-6.348,11.072
		l0.074,51.671c0.728,0.32,1.42,0.716,2.067,1.181l44.953-25.983c-0.5-4.675,2.061-9.142,6.348-11.072v-51.965
		C148.185,331.146,147.494,330.751,146.838,330.302z M35.526,330.598c-0.646,0.464-1.339,0.86-2.067,1.181v51.966
		c4.346,1.864,6.935,6.379,6.348,11.072l44.953,25.982c0.646-0.464,1.339-0.86,2.066-1.181v-51.966
		c-4.346-1.864-6.935-6.379-6.348-11.072L35.526,330.598L35.526,330.598z"/>
	<path display="inline" d="M91.182,293.912l55.435,32.035v63.997l-55.435,32.035l-55.435-32.035v-64.071L91.182,293.912
		 M91.182,286.309l-62.004,35.8v71.6l62.004,35.8l62.004-35.8v-71.6L91.182,286.309z"/>
	<path display="inline" d="M91.625,369.94h-0.886c-6.384,0.017-11.572-5.146-11.589-11.529c0-0.02,0-0.04,0-0.06v-0.886
		c-0.016-6.384,5.146-11.572,11.53-11.589c0.02,0,0.039,0,0.059,0h0.886c6.384-0.016,11.573,5.146,11.589,11.53
		c0,0.02,0,0.04,0,0.059v0.886c0.017,6.385-5.146,11.573-11.529,11.589C91.664,369.94,91.645,369.94,91.625,369.94z M91.625,417.551
		h-0.886c-4.192-0.013-8.063,2.247-10.112,5.905l10.555,6.053l10.556-6.053C99.688,419.798,95.817,417.538,91.625,417.551
		L91.625,417.551z M153.26,381.751h-0.443c-6.384-0.017-11.572,5.146-11.589,11.529c0,0.021,0,0.04,0,0.06v0.886
		c-0.01,1.968,0.499,3.903,1.477,5.61l10.555-6.127V381.751z M142.705,316.056c-0.969,1.711-1.478,3.644-1.477,5.61v0.886
		c-0.016,6.384,5.146,11.573,11.53,11.589c0.02,0,0.04,0,0.059,0h0.443v-12.032L142.705,316.056L142.705,316.056z M91.182,286.309
		l-10.555,6.053c2.04,3.677,5.908,5.964,10.112,5.979h0.886c4.193,0.012,8.063-2.248,10.113-5.905L91.182,286.309z M39.733,315.982
		l-10.556,6.126v12.032h0.443c6.384,0.016,11.573-5.146,11.589-11.53c0-0.02,0-0.04,0-0.059v-0.886
		C41.185,319.68,40.678,317.729,39.733,315.982z M29.621,381.751h-0.443v11.958l10.556,6.127c0.969-1.711,1.478-3.644,1.476-5.61
		v-0.886c0.016-6.384-5.146-11.573-11.53-11.589C29.66,381.751,29.64,381.751,29.621,381.751z"/>
	<path display="inline" d="M91.182,429.878v-71.674l-62.004-35.8v71.673L91.182,429.878z"/>
	<path display="inline" d="M153.26,393.414v-71.601l-62.004,35.8v71.674L153.26,393.414z"/>
	<text transform="matrix(1 0 0 1 168.5273 393.5688)" display="inline"><tspan x="0" y="0" font-family="'Arial-BoldMT'" font-size="100" letter-spacing="-4">IP</tspan><tspan x="86.482" y="0" font-family="'Arial-BoldMT'" font-size="100" letter-spacing="-2">F</tspan><tspan x="145.566" y="0" font-family="'Arial-BoldMT'" font-size="100">S</tspan><tspan x="212.266" y="0" font-family="'Arial-BoldMT'" font-size="100" letter-spacing="-14"> </tspan><tspan x="226.049" y="0" font-family="'Arial-BoldMT'" font-size="100" letter-spacing="-4">BO</tspan><tspan x="368.049" y="0" font-family="'Arial-BoldMT'" font-size="100">X</tspan></text>
	<g id="图层_4" display="inline">
		<path fill="#459DA1" d="M27.027,396.533l64.077,36.996l64.078-36.996v-73.995l-64.078-36.997l-64.077,36.997V396.533z"/>
		<path fill="#64C2CA" d="M84.544,294.39l-46.532,26.851c0.076,0.838,0.076,1.68,0,2.518l46.456,26.852
			c3.921-2.9,9.275-2.9,13.196,0l46.457-26.852c-0.077-0.838-0.077-1.68,0-2.518l-46.38-26.851
			C93.82,297.29,88.466,297.29,84.544,294.39z M148.622,331.158l-46.532,27.158c0.517,4.831-2.13,9.447-6.56,11.441l0.075,53.399
			c0.752,0.33,1.468,0.74,2.136,1.219l46.457-26.852c-0.518-4.831,2.128-9.447,6.56-11.441v-53.704
			C150.014,332.03,149.299,331.622,148.622,331.158z M33.588,331.464c-0.668,0.479-1.384,0.888-2.136,1.22v53.703
			c4.491,1.926,7.167,6.593,6.56,11.441l46.456,26.854c0.667-0.48,1.383-0.889,2.135-1.221v-53.704
			c-4.491-1.926-7.167-6.593-6.56-11.441L33.588,331.464L33.588,331.464z"/>
		<path fill="#459DA1" d="M91.104,293.551l57.289,33.107v66.137l-57.289,33.107l-57.288-33.107v-66.214L91.104,293.551
			 M91.104,285.693l-64.077,36.998v73.995l64.077,36.996l64.078-36.996v-73.995L91.104,285.693z"/>
		<path fill="#459DA1" d="M91.562,372.122h-0.915c-6.597,0.017-11.959-5.317-11.977-11.915c0-0.02,0-0.041,0-0.061v-0.915
			c-0.017-6.598,5.318-11.959,11.916-11.977c0.021,0,0.04,0,0.061,0h0.915c6.598-0.017,11.96,5.317,11.976,11.916
			c0,0.02,0,0.04,0,0.061v0.915c0.017,6.598-5.317,11.959-11.914,11.976C91.603,372.122,91.583,372.122,91.562,372.122z
			 M91.562,421.324h-0.915c-4.332-0.014-8.333,2.322-10.451,6.104l10.908,6.254l10.909-6.254
			C99.895,423.646,95.896,421.311,91.562,421.324L91.562,421.324z M155.259,384.328h-0.458c-6.598-0.018-11.96,5.317-11.977,11.915
			c0,0.021,0,0.041,0,0.063v0.914c-0.01,2.033,0.515,4.033,1.527,5.799l10.908-6.332V384.328z M144.351,316.436
			c-1.002,1.768-1.528,3.766-1.527,5.798v0.916c-0.017,6.597,5.317,11.959,11.915,11.976c0.021,0,0.042,0,0.063,0h0.458v-12.434
			L144.351,316.436L144.351,316.436z M91.104,285.693l-10.908,6.255c2.107,3.8,6.105,6.164,10.451,6.18h0.915
			c4.333,0.012,8.333-2.323,10.451-6.104L91.104,285.693z M37.936,316.359l-10.908,6.332v12.434h0.458
			c6.598,0.016,11.96-5.318,11.976-11.915c0-0.021,0-0.042,0-0.061v-0.916C39.436,320.181,38.912,318.165,37.936,316.359z
			 M27.485,384.328h-0.458v12.358l10.908,6.332c1.001-1.77,1.527-3.766,1.525-5.799v-0.914c0.017-6.599-5.317-11.961-11.915-11.977
			C27.526,384.328,27.505,384.328,27.485,384.328z"/>
		<path opacity="0.15" fill="#194F4B" d="M91.104,434.064v-74.071l-64.077-36.997v74.068L91.104,434.064z"/>
		<path opacity="0.15" fill="#6BDBD0" d="M155.259,396.381v-73.995l-64.078,36.998v74.07L155.259,396.381z"/>
	</g>
</g>
<g id="Layer_1_x5F_复制_2">
	<title>IPFS logo (new)</title>
	<path display="none" d="M264.499,335.52h19.699v116.202h-19.699V335.52z M303.897,335.52h40.173c8.742,0,16.047,0.996,21.691,2.877
		c5.644,1.881,10.182,4.537,13.391,7.857c3.185,3.138,5.542,7.016,6.861,11.288c1.334,4.338,2.006,8.853,1.992,13.391
		c0.021,4.829-0.649,9.637-1.992,14.276c-1.309,4.471-3.66,8.567-6.861,11.952c-3.772,3.701-8.358,6.468-13.391,8.078
		c-5.645,1.992-12.728,2.988-21.359,2.988h-21.138v43.493h-19.367V335.52z M343.96,391.96c4.143,0.123,8.281-0.362,12.284-1.438
		c2.801-0.741,5.382-2.146,7.525-4.095c1.821-1.771,3.156-3.981,3.873-6.419c0.73-2.744,1.103-5.571,1.106-8.411
		c0.065-2.88-0.308-5.754-1.106-8.521c-0.735-2.36-2.115-4.468-3.984-6.087c-2.228-1.816-4.838-3.103-7.636-3.763
		c-3.944-0.974-8.001-1.42-12.063-1.328h-20.475v40.062H343.96z M476.651,335.52v16.932h-54.449v32.869h51.24v17.043h-51.24v49.358
		h-19.698V335.52H476.651z M505.647,416.197c0.885,7.636,3.651,13.17,8.189,16.601c4.537,3.431,11.509,5.201,20.584,5.201
		c3.778,0.108,7.55-0.377,11.178-1.438c2.651-0.834,5.127-2.146,7.304-3.874c1.778-1.541,3.115-3.527,3.874-5.755
		c0.77-2.28,1.144-4.676,1.106-7.082c0.022-1.837-0.239-3.666-0.774-5.424c-0.61-1.838-1.59-3.532-2.878-4.979
		c-1.612-1.673-3.527-3.025-5.644-3.983c-2.905-1.254-5.953-2.146-9.075-2.656l-14.83-2.768c-5.304-0.939-10.522-2.309-15.604-4.094
		c-4.189-1.436-8.088-3.609-11.51-6.419c-3.09-2.624-5.484-5.969-6.973-9.739c-1.659-4.495-2.448-9.265-2.324-14.055
		c-0.357-9.861,4.362-19.217,12.506-24.79c4.21-2.937,8.943-5.041,13.944-6.198c5.727-1.368,11.599-2.036,17.486-1.992
		c7.968,0,14.719,0.886,20.142,2.767c4.822,1.502,9.299,3.947,13.169,7.193c3.23,2.866,5.83,6.37,7.637,10.292
		c1.729,3.878,2.921,7.974,3.541,12.174l-18.592,2.877c-1.55-6.53-4.095-11.289-7.857-14.498c-3.763-3.209-9.629-4.759-17.818-4.759
		c-3.908-0.063-7.81,0.346-11.62,1.217c-2.706,0.647-5.262,1.812-7.525,3.431c-1.78,1.316-3.19,3.07-4.095,5.091
		c-0.796,1.893-1.209,3.923-1.218,5.976c0,5.091,1.328,8.854,4.095,11.399c2.768,2.545,7.637,4.427,14.608,5.866l16.047,3.099
		c12.285,2.324,21.249,6.197,27.004,11.62s8.632,13.391,8.632,23.684c0.039,4.67-0.864,9.299-2.656,13.612
		c-1.796,4.233-4.609,7.958-8.189,10.845c-4.06,3.299-8.72,5.779-13.723,7.305c-6.204,1.881-12.664,2.777-19.146,2.656
		c-14.83,0-26.561-3.099-34.972-9.407c-8.411-6.308-13.17-15.937-13.944-28.995H505.647L505.647,416.197z"/>
	<path d="M29.178,393.561l62.004,35.8l62.004-35.8v-71.6l-62.004-35.8l-62.004,35.8V393.561z"/>
	<path d="M84.834,294.724l-45.027,25.983c0.074,0.81,0.074,1.625,0,2.436l44.953,25.983c3.794-2.805,8.975-2.805,12.77,0
		l44.953-25.983c-0.074-0.81-0.074-1.625,0-2.436l-44.879-25.983C93.81,297.529,88.628,297.529,84.834,294.724z M146.838,330.302
		l-45.027,26.278c0.501,4.675-2.061,9.142-6.348,11.072l0.074,51.671c0.728,0.32,1.42,0.716,2.067,1.181l44.953-25.983
		c-0.5-4.675,2.061-9.142,6.348-11.072v-51.965C148.185,331.146,147.494,330.751,146.838,330.302z M35.526,330.598
		c-0.646,0.464-1.339,0.86-2.067,1.181v51.966c4.346,1.864,6.935,6.379,6.348,11.072l44.953,25.982
		c0.646-0.464,1.339-0.86,2.066-1.181v-51.966c-4.346-1.864-6.935-6.379-6.348-11.072L35.526,330.598L35.526,330.598z"/>
	<path d="M91.182,293.912l55.435,32.035v63.997l-55.435,32.035l-55.435-32.035v-64.071L91.182,293.912 M91.182,286.309l-62.004,35.8
		v71.6l62.004,35.8l62.004-35.8v-71.6L91.182,286.309z"/>
	<path d="M91.625,369.94h-0.886c-6.384,0.017-11.572-5.146-11.589-11.529c0-0.02,0-0.04,0-0.06v-0.886
		c-0.016-6.384,5.146-11.572,11.53-11.589c0.02,0,0.039,0,0.059,0h0.886c6.384-0.016,11.573,5.146,11.589,11.53
		c0,0.02,0,0.04,0,0.059v0.886c0.017,6.385-5.146,11.573-11.529,11.589C91.664,369.94,91.645,369.94,91.625,369.94z M91.625,417.551
		h-0.886c-4.192-0.013-8.063,2.247-10.112,5.905l10.555,6.053l10.556-6.053C99.688,419.798,95.817,417.538,91.625,417.551
		L91.625,417.551z M153.26,381.751h-0.443c-6.384-0.017-11.572,5.146-11.589,11.529c0,0.021,0,0.04,0,0.06v0.886
		c-0.01,1.968,0.499,3.903,1.477,5.61l10.555-6.127V381.751z M142.705,316.056c-0.969,1.711-1.478,3.644-1.477,5.61v0.886
		c-0.016,6.384,5.146,11.573,11.53,11.589c0.02,0,0.04,0,0.059,0h0.443v-12.032L142.705,316.056L142.705,316.056z M91.182,286.309
		l-10.555,6.053c2.04,3.677,5.908,5.964,10.112,5.979h0.886c4.193,0.012,8.063-2.248,10.113-5.905L91.182,286.309z M39.733,315.982
		l-10.556,6.126v12.032h0.443c6.384,0.016,11.573-5.146,11.589-11.53c0-0.02,0-0.04,0-0.059v-0.886
		C41.185,319.68,40.678,317.729,39.733,315.982z M29.621,381.751h-0.443v11.958l10.556,6.127c0.969-1.711,1.478-3.644,1.476-5.61
		v-0.886c0.016-6.384-5.146-11.573-11.53-11.589C29.66,381.751,29.64,381.751,29.621,381.751z"/>
	<path d="M91.182,429.878v-71.674l-62.004-35.8v71.673L91.182,429.878z"/>
	<path d="M153.26,393.414v-71.601l-62.004,35.8v71.674L153.26,393.414z"/>
	<text transform="matrix(1 0 0 1 195.4126 395.8965)"><tspan x="0" y="0" fill="#333333" font-family="'Arial-BoldMT'" font-size="93.8156">Ipfs</tspan><tspan x="166.789" y="0" fill="#333333" font-family="'Arial-BoldMT'" font-size="93.8156" letter-spacing="-16"> </tspan><tspan x="175.966" y="0" fill="#333333" font-family="'Arial-BoldMT'" font-size="93.8156">Box</tspan></text>
	<g id="图层_4_x5F_复制">
		<path fill="#459DA1" d="M27.027,396.533l64.077,36.996l64.078-36.996v-73.995l-64.078-36.997l-64.077,36.997V396.533z"/>
		<path fill="#64C2CA" d="M84.544,294.39l-46.532,26.851c0.076,0.838,0.076,1.68,0,2.518l46.456,26.852
			c3.921-2.9,9.275-2.9,13.196,0l46.457-26.852c-0.077-0.838-0.077-1.68,0-2.518l-46.38-26.851
			C93.82,297.29,88.466,297.29,84.544,294.39z M148.622,331.158l-46.532,27.158c0.517,4.831-2.13,9.447-6.56,11.441l0.075,53.399
			c0.752,0.33,1.468,0.74,2.136,1.219l46.457-26.852c-0.518-4.831,2.128-9.447,6.56-11.441v-53.704
			C150.014,332.03,149.299,331.622,148.622,331.158z M33.588,331.464c-0.668,0.479-1.384,0.888-2.136,1.22v53.703
			c4.491,1.926,7.167,6.593,6.56,11.441l46.456,26.854c0.667-0.48,1.383-0.889,2.135-1.221v-53.704
			c-4.491-1.926-7.167-6.593-6.56-11.441L33.588,331.464L33.588,331.464z"/>
		<path fill="#459DA1" d="M91.104,293.551l57.289,33.107v66.137l-57.289,33.107l-57.288-33.107v-66.214L91.104,293.551
			 M91.104,285.693l-64.077,36.998v73.995l64.077,36.996l64.078-36.996v-73.995L91.104,285.693z"/>
		<path fill="#459DA1" d="M91.562,372.122h-0.915c-6.597,0.017-11.959-5.317-11.977-11.915c0-0.02,0-0.041,0-0.061v-0.915
			c-0.017-6.598,5.318-11.959,11.916-11.977c0.021,0,0.04,0,0.061,0h0.915c6.598-0.017,11.96,5.317,11.976,11.916
			c0,0.02,0,0.04,0,0.061v0.915c0.017,6.598-5.317,11.959-11.914,11.976C91.603,372.122,91.583,372.122,91.562,372.122z
			 M91.562,421.324h-0.915c-4.332-0.014-8.333,2.322-10.451,6.104l10.908,6.254l10.909-6.254
			C99.895,423.646,95.896,421.311,91.562,421.324L91.562,421.324z M155.259,384.328h-0.458c-6.598-0.018-11.96,5.317-11.977,11.915
			c0,0.021,0,0.041,0,0.063v0.914c-0.01,2.033,0.515,4.033,1.527,5.799l10.908-6.332V384.328z M144.351,316.436
			c-1.002,1.768-1.528,3.766-1.527,5.798v0.916c-0.017,6.597,5.317,11.959,11.915,11.976c0.021,0,0.042,0,0.063,0h0.458v-12.434
			L144.351,316.436L144.351,316.436z M91.104,285.693l-10.908,6.255c2.107,3.8,6.105,6.164,10.451,6.18h0.915
			c4.333,0.012,8.333-2.323,10.451-6.104L91.104,285.693z M37.936,316.359l-10.908,6.332v12.434h0.458
			c6.598,0.016,11.96-5.318,11.976-11.915c0-0.021,0-0.042,0-0.061v-0.916C39.436,320.181,38.912,318.165,37.936,316.359z
			 M27.485,384.328h-0.458v12.358l10.908,6.332c1.001-1.77,1.527-3.766,1.525-5.799v-0.914c0.017-6.599-5.317-11.961-11.915-11.977
			C27.526,384.328,27.505,384.328,27.485,384.328z"/>
		<path opacity="0.15" fill="#194F4B" d="M91.104,434.064v-74.071l-64.077-36.997v74.068L91.104,434.064z"/>
		<path opacity="0.15" fill="#6BDBD0" d="M155.259,396.381v-73.995l-64.078,36.998v74.07L155.259,396.381z"/>
	</g>
</g>
</svg>
